# xmcd
#
# Track frame offsets: 
#        150
#        25432
#        51098
#        79993
#        108223
#        126890
#        154735
#        174480
#        202025
#
# Disc length: 3087 seconds
#
# Revision: 1
# Processed by: cddbd v1.5.2PL0 Copyright (c) Steve Scherf et al.
# Submitted via: ExactAudioCopyFreeDBPlugin 1.0
#
DISCID=750c0d09
DTITLE=Tadataka Unnno Trio - The First Sketch Of Tadataka Unno: My Rom
DTITLE=ance
DYEAR=2008
DGENRE=Jazz
TTITLE0=Milestones
TTITLE1=Whisper Not
TTITLE2=My Romance
TTITLE3=Flappin' From Here
TTITLE4=Harry's Blues
TTITLE5=On The Street Where You Live
TTITLE6=I've Got You Under My Skin
TTITLE7=Jubilation
TTITLE8=When You Wish Upon A Star
EXTD=YEAR: 2008
EXTT0=
EXTT1=
EXTT2=
EXTT3=
EXTT4=
EXTT5=
EXTT6=
EXTT7=
EXTT8=
PLAYORDER=
